# xmcd
#
# Track frame offsets:
# 150
# 16232
# 34421
# 53975
# 76041
# 91464
# 103032
# 121749
# 137687
# 154911
#
# Disc length: 2289 seconds
#
#
# Revision: 0
# Processed by: cddbd v1.5.1PL0 Copyright (c) Steve Scherf et al.
# Submitted via: FreeRIP 2.80 
#
DISCID=7708ef0a
DTITLE=Travis Tritt - Super Hit Series Vol 2
DYEAR=1900
DGENRE=
TTITLE0=01 Can I Trust You With My Heart
TTITLE1=02 Help Me Hold On
TTITLE2=03 Put Some Drive In Your Country
TTITLE3=04 Tell Me I Was Dreaming
TTITLE4=05 More Than You'll Ever Know
TTITLE5=06 Here's A Quarter [Call Someone Who Cares]
TTITLE6=07 Helping Me Get Over You [f Lari White]
TTITLE7=08Ten Feet Tall and Bullerproof
TTITLE8=09 If I Lost You
TTITLE9=10 For You
EXTD=
EXTT0=
EXTT1=
EXTT2=
EXTT3=
EXTT4=
EXTT5=
EXTT6=
EXTT7=
EXTT8=
EXTT9=
PLAYORDER=
